<svg width="25" height="19" viewBox="0 0 25 19" fill="none" xmlns="http://www.w3.org/2000/svg">
<g clip-path="url(#clip0_3605_345)">
<g clip-path="url(#clip1_3605_345)">
<g clip-path="url(#clip2_3605_345)">
<path d="M20.6893 2.18963C19.1307 1.47605 17.4852 0.969805 15.795 0.683838C15.5637 1.0973 15.3544 1.5227 15.1681 1.95826C13.3677 1.68696 11.5368 1.68696 9.73637 1.95826C9.54989 1.52275 9.34062 1.09735 9.10942 0.683838C7.41813 0.972219 5.7716 1.47966 4.21138 2.19337C1.11396 6.77606 0.274294 11.2449 0.694126 15.6504C2.50806 16.9906 4.53836 18.0098 6.69679 18.6638C7.1828 18.0102 7.61286 17.3167 7.98241 16.5908C7.28051 16.3287 6.60306 16.0052 5.95788 15.6243C6.12768 15.5011 6.29375 15.3742 6.45422 15.2511C8.33152 16.1339 10.3805 16.5917 12.455 16.5917C14.5295 16.5917 16.5785 16.1339 18.4558 15.2511C18.6181 15.3836 18.7842 15.5104 18.9521 15.6243C18.3057 16.0058 17.627 16.3299 16.9239 16.5927C17.293 17.3182 17.7231 18.0111 18.2095 18.6638C20.3698 18.0125 22.4016 16.9937 24.2159 15.6522C24.7085 10.5434 23.3744 6.11553 20.6893 2.18963ZM8.51419 12.9411C7.34426 12.9411 6.37772 11.8794 6.37772 10.5732C6.37772 9.26707 7.31068 8.19603 8.51046 8.19603C9.71025 8.19603 10.6693 9.26707 10.6488 10.5732C10.6283 11.8794 9.70652 12.9411 8.51419 12.9411ZM16.3958 12.9411C15.224 12.9411 14.2612 11.8794 14.2612 10.5732C14.2612 9.26707 15.1942 8.19603 16.3958 8.19603C17.5975 8.19603 18.5491 9.26707 18.5286 10.5732C18.5081 11.8794 17.5882 12.9411 16.3958 12.9411Z" fill="white"/>
</g>
</g>
</g>
<defs>
<clipPath id="clip0_3605_345">
<rect width="23.73" height="17.98" fill="white" transform="translate(0.590027 0.683838)"/>
</clipPath>
<clipPath id="clip1_3605_345">
<rect width="23.73" height="17.98" fill="white" transform="translate(0.590027 0.683838)"/>
</clipPath>
<clipPath id="clip2_3605_345">
<rect width="23.7233" height="17.98" fill="white" transform="translate(0.593384 0.683838)"/>
</clipPath>
</defs>
</svg>
