<svg width="50" height="59" viewBox="0 0 50 59" fill="none" xmlns="http://www.w3.org/2000/svg">
<g style="mix-blend-mode:lighten">
<path fill-rule="evenodd" clip-rule="evenodd" d="M25.0422 54.6636C36.8394 54.6403 46.384 45.0579 46.3607 33.2607C46.3374 21.4635 36.755 11.9189 24.9578 11.9422C13.1606 11.9655 3.61602 21.5479 3.63932 33.3451C3.66263 45.1423 13.245 54.6869 25.0422 54.6636ZM25.0493 58.2536C38.8292 58.2264 49.9779 47.0335 49.9507 33.2536C49.9235 19.4737 38.7306 8.32497 24.9507 8.3522C11.1708 8.37942 0.0220687 19.5723 0.0492917 33.3522C0.0765148 47.1321 11.2694 58.2808 25.0493 58.2536Z" fill="url(#paint0_linear_3605_929)"/>
<path d="M28.876 38.9391L24.8307 36.2465L21.445 39.4036C19.4223 39.4036 17.336 39.5697 18.3536 41.32L23.8325 51.8398C24.2756 52.6023 25.3858 52.6023 25.8289 51.8398L31.254 41.1458C32.2702 39.3982 32.0862 40.2167 30.065 40.2167L28.876 38.9391ZM21.4449 43.441L22.3484 45.498L20.5532 40.4489C20.3178 40.0437 20.9521 39.4036 21.445 39.4036L23.8256 38.3987L20.9099 39.4037L21.4449 43.441ZM28.876 40.4489L27.3898 44.1074L27.152 43.0041L25.833 38.3974L27.8059 39.9263C28.2988 39.9263 29.1114 40.0437 28.876 40.4489Z" fill="white"/>
<path d="M22.7286 39.2389L20.0903 37.4438L17.8822 39.5486C16.5631 39.5486 15.2025 39.6593 15.8661 40.8262L19.4393 47.8394C19.7283 48.3477 20.4524 48.3477 20.7413 47.8394L24.2794 40.7101C24.9422 39.545 24.8222 40.0906 23.504 40.0906L22.7286 39.2389ZM17.8822 42.2402L18.4715 43.6116L17.3006 40.2455C17.1471 39.9753 17.5608 39.5486 17.8822 39.5486L19.4348 38.8787L17.5333 39.5486L17.8822 42.2402ZM22.7286 40.2455L21.7593 42.6845L21.2553 42.2402L20.744 38.8778L22.0307 39.8971C22.3521 39.8971 22.8821 39.9753 22.7286 40.2455Z" fill="white"/>
<path d="M32.308 39.2389L29.6697 37.4438L27.4616 39.5486C26.1425 39.5486 24.7819 39.6593 25.4455 40.8262L29.0187 47.8394C29.3077 48.3477 30.0317 48.3477 30.3207 47.8394L33.8588 40.7101C34.5216 39.545 34.4016 40.0906 33.0834 40.0906L32.308 39.2389ZM27.4616 42.2402L28.0508 43.6116L26.88 40.2455C26.7265 39.9753 27.1402 39.5486 27.4616 39.5486L29.0142 38.8787L27.1126 39.5486L27.4616 42.2402ZM32.308 40.2455L31.3387 42.6845L30.8347 42.2402L30.3234 38.8778L31.6101 39.8971C31.9315 39.8971 32.4615 39.9753 32.308 40.2455Z" fill="white"/>
<path d="M12.6569 43.3638L24.941 39.2786L37.2251 43.4505C41.7423 43.4445 44.5987 38.3843 42.3209 34.3964L27.1226 3.72187C26.1308 1.98463 23.6512 1.98796 22.6641 3.72784L7.53406 34.5627C5.26987 38.5502 8.13962 43.3698 12.6538 43.3638L12.6569 43.3638ZM27.1456 11.7066L30.4565 18.177L38.4436 36.6727C38.9705 37.5961 38.3228 38.9008 37.2221 38.9022L27.1791 34.3683L27.1487 11.7035L27.1456 11.7066ZM11.4267 36.8317L19.3721 18.1888L22.6655 11.7126L22.6959 34.3774L12.6538 38.9383C11.5531 38.9398 10.9023 37.7565 11.4267 36.8317Z" fill="white"/>
<path fill-rule="evenodd" clip-rule="evenodd" d="M13.046 45.7566L12.657 45.7571C6.34882 45.7656 2.30639 39.0342 5.41479 33.4486L20.5471 2.60916L20.5824 2.5468C22.4852 -0.807037 27.2893 -0.813474 29.2011 2.53525L29.236 2.5963L44.4366 33.2756C47.518 38.781 43.6328 45.8353 37.2283 45.8439L36.8313 45.8444L24.933 41.8035L13.046 45.7566ZM24.941 39.2786L37.2251 43.4505C41.7423 43.4445 44.5987 38.3842 42.3209 34.3964L27.1226 3.72185C26.1308 1.98462 23.6512 1.98794 22.6641 3.72783L7.53407 34.5627C5.26988 38.5502 8.13963 43.3698 12.6538 43.3638L12.6569 43.3638L24.941 39.2786ZM22.6656 11.7126L19.3721 18.1887L11.4267 36.8317C10.9023 37.7565 11.5531 38.9397 12.6539 38.9383L22.6959 34.3774L22.6656 11.7126ZM20.3005 32.8367L20.2862 22.1484L14.6342 35.4102L20.3005 32.8367ZM27.1791 34.3683L37.2221 38.9022C38.3228 38.9008 38.9705 37.5961 38.4436 36.6727L30.4565 18.177L27.1487 11.7127L27.1791 34.3683ZM29.5561 22.1289L29.5704 32.8219L35.2885 35.4033L29.5561 22.1289Z" fill="black"/>
</g>
<defs>
<linearGradient id="paint0_linear_3605_929" x1="24.9507" y1="8.3522" x2="25.0493" y2="58.2536" gradientUnits="userSpaceOnUse">
<stop stop-color="#F26141"/>
<stop offset="1" stop-color="#7C37D4"/>
</linearGradient>
</defs>
</svg>
