<svg width="50" height="50" viewBox="0 0 50 50" fill="none" xmlns="http://www.w3.org/2000/svg">
<g style="mix-blend-mode:lighten">
<path fill-rule="evenodd" clip-rule="evenodd" d="M25.0422 46.3607C36.8394 46.3374 46.384 36.755 46.3607 24.9578C46.3374 13.1606 36.755 3.616 24.9578 3.63931C13.1606 3.66262 3.61602 13.245 3.63932 25.0422C3.66263 36.8394 13.245 46.384 25.0422 46.3607ZM25.0493 49.9507C38.8292 49.9235 49.9779 38.7306 49.9507 24.9507C49.9235 11.1708 38.7306 0.022057 24.9507 0.0492801C11.1708 0.0765031 0.0220687 11.2694 0.0492917 25.0493C0.0765148 38.8292 11.2694 49.9779 25.0493 49.9507Z" fill="url(#paint0_linear_3605_330)"/>
<path d="M27.8921 33.9778L24.8502 31.9531L22.3042 34.3272C20.7833 34.3272 19.2145 34.452 19.9796 35.7682L24.0996 43.6787C24.4328 44.2521 25.2676 44.2521 25.6008 43.6787L29.6803 35.6372C30.4444 34.3231 30.3061 34.9385 28.7862 34.9385L27.8921 33.9778ZM22.3042 37.3631L22.9836 38.9099L21.6337 35.1132C21.4567 34.8084 21.9336 34.3272 22.3042 34.3272L24.0944 33.5715L21.9019 34.3272L22.3042 37.3631ZM27.8921 35.1132L26.7745 37.8643L26.5957 37.0346L25.6039 33.5705L27.0875 34.7202C27.4581 34.7202 28.0691 34.8084 27.8921 35.1132Z" fill="white"/>
<path d="M23.2695 34.2034L21.2856 32.8535L19.6252 34.4363C18.6333 34.4363 17.6101 34.5195 18.1091 35.397L20.7961 40.6706C21.0134 41.0529 21.5578 41.0529 21.7751 40.6706L24.4357 35.3096C24.934 34.4336 24.8438 34.8438 23.8526 34.8438L23.2695 34.2034ZM19.6252 36.4602L20.0683 37.4914L19.1879 34.9603C19.0724 34.7571 19.3835 34.4363 19.6252 34.4363L20.7927 33.9325L19.3628 34.4363L19.6252 36.4602ZM23.2695 34.9603L22.5406 36.7943L22.1616 36.4602L21.7771 33.9318L22.7447 34.6983C22.9864 34.6983 23.3849 34.7571 23.2695 34.9603Z" fill="white"/>
<path d="M30.4728 34.2034L28.4889 32.8535L26.8285 34.4363C25.8366 34.4363 24.8135 34.5195 25.3125 35.397L27.9994 40.6706C28.2167 41.0529 28.7612 41.0529 28.9785 40.6706L31.639 35.3096C32.1374 34.4336 32.0471 34.8438 31.0559 34.8438L30.4728 34.2034ZM26.8285 36.4602L27.2716 37.4914L26.3912 34.9603C26.2758 34.7571 26.5868 34.4363 26.8285 34.4363L27.996 33.9325L26.5661 34.4363L26.8285 36.4602ZM30.4728 34.9603L29.744 36.7943L29.3649 36.4602L28.9805 33.9318L29.948 34.6983C30.1897 34.6983 30.5882 34.7571 30.4728 34.9603Z" fill="white"/>
<path d="M15.6959 37.3051L24.9331 34.2332L34.1703 37.3703C37.5671 37.3657 39.715 33.5606 38.0022 30.5619L26.5736 7.49579C25.8279 6.18946 23.9633 6.19195 23.221 7.50028L11.8438 30.687C10.1412 33.6855 12.2991 37.3096 15.6936 37.3051L15.6959 37.3051ZM26.591 13.5001L29.0806 18.3656L35.0866 32.2736C35.4828 32.968 34.9958 33.949 34.1681 33.9501L26.6161 30.5408L26.5933 13.4977L26.591 13.5001ZM14.7709 32.3932L20.7455 18.3744L23.2221 13.5046L23.2449 30.5477L15.6937 33.9772C14.866 33.9784 14.3766 33.0886 14.7709 32.3932Z" fill="white"/>
<path fill-rule="evenodd" clip-rule="evenodd" d="M15.9885 39.1044L15.696 39.1048C10.9525 39.1112 7.91276 34.0494 10.2502 29.8492L21.6291 6.65912L21.6557 6.61222C23.0865 4.09026 26.699 4.08542 28.1366 6.60353L28.1628 6.64944L39.5932 29.7192C41.9102 33.859 38.9887 39.1636 34.1728 39.17L33.8743 39.1704L24.9271 36.1318L15.9885 39.1044ZM24.9332 34.2332L34.1704 37.3703C37.5672 37.3658 39.7151 33.5607 38.0022 30.5619L26.5737 7.49582C25.8279 6.18948 23.9633 6.19198 23.221 7.50031L11.8438 30.687C10.1412 33.6855 12.2992 37.3096 15.6936 37.3051L15.6959 37.3051L24.9332 34.2332ZM23.2221 13.5046L20.7455 18.3744L14.7709 32.3932C14.3766 33.0886 14.866 33.9784 15.6937 33.9773L23.2449 30.5477L23.2221 13.5046ZM21.4437 29.3891L21.4329 21.3519L17.1828 31.3243L21.4437 29.3891ZM26.6161 30.5408L34.1681 33.9502C34.9958 33.9491 35.4828 32.968 35.0866 32.2736L29.0806 18.3656L26.5933 13.5046L26.6161 30.5408ZM28.4035 21.3372L28.4143 29.378L32.7141 31.3191L28.4035 21.3372Z" fill="#242424"/>
</g>
<defs>
<linearGradient id="paint0_linear_3605_330" x1="24.9507" y1="0.0492801" x2="25.0493" y2="49.9507" gradientUnits="userSpaceOnUse">
<stop stop-color="#F26141"/>
<stop offset="1" stop-color="#7C37D4"/>
</linearGradient>
</defs>
</svg>
