<svg width="73" height="44" viewBox="0 0 73 44" fill="none" xmlns="http://www.w3.org/2000/svg">
<path d="M51.2018 43.2274C44.402 43.2274 39.1493 42.0851 35.4435 39.8005C31.7558 37.498 29.9119 33.5134 29.9119 27.8469H43.8084C43.8084 30.1135 44.501 31.5166 45.8861 32.0563C47.2893 32.578 49.0791 32.8388 51.2558 32.8388C53.3785 32.8388 55.0875 32.605 56.3827 32.1372C57.6779 31.6695 58.3255 30.7341 58.3255 29.331C58.3255 28.2876 57.6779 27.5681 56.3827 27.1723C55.1054 26.7586 52.6769 26.5517 49.0971 26.5517V16.6758C52.6769 16.6758 55.1054 16.4419 56.3827 15.9742C57.6779 15.5065 58.3255 14.7599 58.3255 13.7346C58.3255 12.3134 57.6779 11.405 56.3827 11.0092C55.0875 10.5955 53.3785 10.3886 51.2558 10.3886C48.9892 10.3886 47.1813 10.6585 45.8321 11.1981C44.483 11.7198 43.8084 13.1949 43.8084 15.6234H29.9119C29.9119 10.0648 31.7558 6.07127 35.4435 3.64276C39.1493 1.21425 44.402 0 51.2018 0C58.3974 0 63.6952 1.01637 67.0951 3.04913C70.513 5.06389 72.2219 8.14 72.2219 12.2775C72.2039 15.5155 71.1246 17.8091 68.9839 19.1582C67.0411 20.3815 64.6216 20.9931 61.7254 20.9931C61.6714 20.9931 61.6264 20.9931 61.5905 20.9931V21.9375C62.0222 21.9195 62.4449 21.9105 62.8587 21.9105C65.9348 21.9105 68.2644 22.4232 69.8474 23.4486C71.4304 24.456 72.2219 26.6326 72.2219 29.9786C72.2219 34.224 70.513 37.498 67.0951 39.8005C63.6952 42.0851 58.3974 43.2274 51.2018 43.2274Z" fill="white"/>
<path d="M15.9742 20.8851H26.1739V26.6596H15.9742V36.8053H10.1997V26.6596H0V20.8851H10.1997V10.6314H15.9742V20.8851Z" fill="white"/>
</svg>
