<svg width="63" height="17" viewBox="0 0 63 17" fill="none" xmlns="http://www.w3.org/2000/svg">
<path d="M18.6843 17H0.913227C0.803631 17 0.698518 16.9602 0.621053 16.8893C0.543506 16.8185 0.5 16.7225 0.5 16.6222V0.378099C0.5 0.277922 0.543506 0.181841 0.621053 0.111032C0.698518 0.0401497 0.803631 0.000379562 0.913227 0.000379562H18.6843C18.794 0.000379562 18.8991 0.0401497 18.9766 0.111032C19.0541 0.181841 19.0977 0.277922 19.0977 0.378099V16.6222C19.0977 16.7225 19.0541 16.8185 18.9766 16.8893C18.8991 16.9602 18.794 17 18.6843 17ZM12.8984 6.04467C12.8984 5.94449 12.8549 5.84841 12.7774 5.77752C12.6999 5.70671 12.5948 5.66687 12.4852 5.66687H7.11247C7.00288 5.66687 6.89776 5.70671 6.82021 5.77752C6.74275 5.84841 6.69924 5.94449 6.69924 6.04467V10.9557C6.69924 11.0559 6.74275 11.152 6.82021 11.2228C6.89776 11.2937 7.00288 11.3334 7.11247 11.3334H12.4852C12.5948 11.3334 12.6999 11.2937 12.7774 11.2228C12.8549 11.152 12.8984 11.0559 12.8984 10.9557V6.04467Z" fill="white"/>
<path d="M55.8899 11.3328H50.5173C50.2891 11.3328 50.104 11.1637 50.104 10.9551V6.04406C50.104 5.83543 50.2891 5.66626 50.5173 5.66626H55.8899C56.1182 5.66626 56.3032 5.83543 56.3032 6.04406V10.9551C56.3032 11.1637 56.1182 11.3328 55.8899 11.3328Z" fill="white"/>
<path d="M49.6883 16.9996H44.3157C44.0874 16.9996 43.9023 16.8305 43.9023 16.6218V11.7108C43.9023 11.5022 44.0874 11.333 44.3157 11.333H49.6883C49.9166 11.333 50.1016 11.5022 50.1016 11.7108V16.6218C50.1016 16.8305 49.9166 16.9996 49.6883 16.9996Z" fill="white"/>
<path d="M62.0868 16.9996H56.7141C56.4859 16.9996 56.3008 16.8305 56.3008 16.6218V11.7108C56.3008 11.5022 56.4859 11.333 56.7141 11.333H62.0868C62.315 11.333 62.5 11.5022 62.5 11.7108V16.6218C62.5 16.8305 62.315 16.9996 62.0868 16.9996Z" fill="white"/>
<path d="M49.6883 5.66656H44.3157C44.0874 5.66656 43.9023 5.49748 43.9023 5.28885V0.377796C43.9023 0.169165 44.0874 -2.86102e-06 44.3157 -2.86102e-06H49.6883C49.9166 -2.86102e-06 50.1016 0.169165 50.1016 0.377796V5.28885C50.1016 5.49748 49.9166 5.66656 49.6883 5.66656Z" fill="white"/>
<path d="M62.0868 5.66656H56.7141C56.4859 5.66656 56.3008 5.49748 56.3008 5.28885V0.377796C56.3008 0.169165 56.4859 -2.86102e-06 56.7141 -2.86102e-06H62.0868C62.315 -2.86102e-06 62.5 0.169165 62.5 0.377796V5.28885C62.5 5.49748 62.315 5.66656 62.0868 5.66656Z" fill="white"/>
<path d="M40.3816 16.9996H35.009C34.7808 16.9996 34.5957 16.8305 34.5957 16.6218V11.7108C34.5957 11.5022 34.7808 11.333 35.009 11.333H40.3816C40.6099 11.333 40.7949 11.5022 40.7949 11.7108V16.6218C40.7949 16.8305 40.6099 16.9996 40.3816 16.9996Z" fill="white"/>
<path d="M40.7273 5.66656H35.3547C35.1265 5.66656 34.9414 5.49748 34.9414 5.28877V0.377798C34.9414 0.169167 35.1265 1.43051e-06 35.3547 1.43051e-06H40.7273C40.9556 1.43051e-06 41.1406 0.169167 41.1406 0.377798V5.28877C41.1406 5.49748 40.9556 5.66656 40.7273 5.66656Z" fill="white"/>
<path d="M35.2095 10.9511C35.2095 11.0513 35.1659 11.1474 35.0885 11.2182C35.0109 11.2891 34.9058 11.3288 34.7962 11.3288H29.0103V16.6134C29.0103 16.7136 28.9667 16.8097 28.8892 16.8805C28.8117 16.9514 28.7066 16.9911 28.597 16.9911H23.2243C23.1147 16.9911 23.0096 16.9514 22.9321 16.8805C22.8545 16.8097 22.811 16.7136 22.811 16.6134V0.377748C22.811 0.277569 22.8545 0.18149 22.9321 0.110682C23.0096 0.0397968 23.1147 2.86102e-05 23.2243 2.86102e-05H28.597C28.7066 2.86102e-05 28.8117 0.0397968 28.8892 0.110682C28.9667 0.18149 29.0103 0.277569 29.0103 0.377748V5.66227H34.7962C34.9058 5.66227 35.0109 5.70212 35.0885 5.77292C35.1659 5.84381 35.2095 5.93989 35.2095 6.04006V10.9511Z" fill="white"/>
</svg>
