<svg width="124" height="17" viewBox="0 0 124 17" fill="none" xmlns="http://www.w3.org/2000/svg">
<g clip-path="url(#clip0_6916_828)">
<path d="M93.6815 0.192017H97.4025L85.5622 16.9111H81.7925L93.6815 0.192017Z" fill="white"/>
<path d="M86.9849 7.75045L81.8765 0.191956H85.9261L87.9296 3.51417C88.5477 4.53927 88.4749 5.80277 87.7423 6.7603C87.4923 7.08724 87.2373 7.4204 86.9849 7.75124V7.75045Z" fill="white"/>
<path d="M92.1979 9.33466L97.3188 16.911H93.2691L91.2529 13.5701C90.635 12.5466 90.7078 11.2839 91.4395 10.3271C91.6902 9.9994 91.9454 9.66547 92.1979 9.33466Z" fill="white"/>
<path d="M98.3423 16.9111V0.192017H105.253C106.55 0.192017 107.63 0.380727 108.491 0.758923C109.353 1.13712 109.997 1.65277 110.424 2.30742C110.851 2.96209 111.065 3.70062 111.065 4.52381C111.065 5.20487 110.926 5.78575 110.649 6.2688C110.37 6.75183 109.994 7.14245 109.519 7.44142C109.044 7.74042 108.512 7.95785 107.924 8.09221C107.924 8.09221 109.183 8.4603 109.767 8.79346C110.351 9.12583 110.831 9.5918 111.205 10.1905C111.58 10.7885 111.767 11.5107 111.767 12.3564C111.767 13.2021 111.544 14.0005 111.097 14.6846C110.65 15.3696 109.973 15.9116 109.066 16.3116C108.16 16.7123 107.019 16.9127 105.641 16.9127H98.3438L98.3423 16.9111ZM101.604 7.30631H104.843C105.399 7.30631 105.902 7.20923 106.353 7.01431C106.804 6.82016 107.161 6.54525 107.422 6.18958C107.684 5.83468 107.816 5.41378 107.816 4.92762C107.816 4.28461 107.57 3.7511 107.078 3.32865C106.587 2.90618 105.865 2.69494 104.916 2.69494H101.605V7.30708L101.604 7.30631ZM101.604 14.3864H105.108C106.292 14.3864 107.147 14.1729 107.675 13.7473C108.203 13.321 108.467 12.7781 108.467 12.1204C108.467 11.6195 108.334 11.1706 108.068 10.7738C107.802 10.3777 107.426 10.0632 106.938 9.83098C106.451 9.59879 105.877 9.48385 105.217 9.48385H101.604V14.3872V14.3864Z" fill="white"/>
<path d="M111.608 2.71372V0.178162H123.334V2.71372H119.09V16.8973H115.864V2.71372H111.608Z" fill="white"/>
<path d="M20.9468 16.9111V0.192017H28.3655C29.7185 0.192017 30.8866 0.418003 31.8691 0.870752C32.8517 1.3235 33.6109 1.96651 34.146 2.80057C34.6822 3.63461 34.9496 4.62011 34.9496 5.75701C34.9496 6.89394 34.678 7.90038 34.1344 8.70805C33.5908 9.51646 32.8158 10.1315 31.809 10.554C30.8022 10.9764 29.614 11.1877 28.2442 11.1877H23.5439V8.00058H27.4348C28.0871 8.00058 28.6374 7.92213 29.0838 7.76527C29.5312 7.6084 29.8689 7.363 30.0988 7.03062C30.3281 6.69747 30.4435 6.27344 30.4435 5.75701C30.4435 5.24059 30.3288 4.81269 30.0988 4.47254C29.8689 4.13242 29.5312 3.87769 29.0838 3.70994C28.6374 3.54142 28.0829 3.45756 27.4223 3.45756H25.2842V16.9119H20.9468V16.9111ZM30.5029 16.3822L26.4205 9.2695H31.0724L35.5669 16.9111H31.4518C31.0547 16.9111 30.6902 16.7076 30.5036 16.3822H30.5029Z" fill="white"/>
<path d="M40.9282 0.192017V15.9147C40.9282 16.4653 40.4482 16.9111 39.8553 16.9111H36.5908V0.192017H40.9282Z" fill="white"/>
<path d="M64.769 16.7191V0H77.3229V3.28806H69.1073V6.66542H76.6706V9.87427H69.1073V13.431H77.3112V16.7191H64.7699H64.769Z" fill="white"/>
<path d="M19.1186 2.95821C18.5835 2.08688 17.8242 1.40815 16.8417 0.92123C15.8583 0.435088 14.691 0.192017 13.3372 0.192017H5.91846V6.52817H8.09007C9.28665 6.52817 10.2558 5.62734 10.2558 4.51682V3.45756H12.3939C13.0546 3.45756 13.6081 3.56084 14.0555 3.76663C14.5028 3.97243 14.8407 4.26444 15.0706 4.64184C15.2997 5.02004 15.4151 5.47046 15.4151 5.99387C15.4151 6.51729 15.3006 6.94753 15.0706 7.32883C14.8407 7.71092 14.5028 8.00833 14.0555 8.22112C13.6081 8.43468 13.0587 8.54108 12.4065 8.54108H8.11181C6.90016 8.54108 5.91846 9.45356 5.91846 10.5781V16.9111H10.2558V11.7274H13.2159C14.5856 11.7274 15.773 11.4898 16.7806 11.0145C17.7874 10.5392 18.5626 9.87214 19.1061 9.01169C19.6496 8.15124 19.9214 7.14556 19.9214 5.99311C19.9214 4.84065 19.6538 3.82955 19.1178 2.95821H19.1186Z" fill="white"/>
<path d="M52.3324 9.17704L48.3656 0.191956H42.9771V16.911H47.2182V6.59955L51.6768 16.7992H52.9028C54.1897 16.7992 55.0726 15.5955 54.6011 14.4834L52.3324 9.17704Z" fill="white"/>
<path d="M57.7174 0.191956L53.9127 8.7872C53.6977 9.27334 53.6977 9.81695 53.9127 10.3031C54.473 11.5697 55.1677 13.1625 55.5566 14.0555L58.8537 6.63216V16.9103H63.1183V0.191956H57.7181H57.7174Z" fill="white"/>
<path d="M2.72622 10.5657C3.92416 10.5657 4.8953 9.66375 4.8953 8.5512C4.8953 7.43863 3.92416 6.53674 2.72622 6.53674C1.52826 6.53674 0.557129 7.43863 0.557129 8.5512C0.557129 9.66375 1.52826 10.5657 2.72622 10.5657Z" fill="white"/>
</g>
<defs>
<clipPath id="clip0_6916_828">
<rect width="123" height="17" fill="white" transform="translate(0.5)"/>
</clipPath>
</defs>
</svg>
