<svg width="22" height="19" viewBox="0 0 22 19" fill="none" xmlns="http://www.w3.org/2000/svg">
<g clip-path="url(#clip0_3605_341)">
<g clip-path="url(#clip1_3605_341)">
<g clip-path="url(#clip2_3605_341)">
<path fill-rule="evenodd" clip-rule="evenodd" d="M16.5341 18.4651C16.8235 18.6701 17.1966 18.7214 17.5293 18.5955C17.8619 18.4687 18.1064 18.1847 18.1801 17.8403C18.9614 14.1688 20.8565 4.87589 21.5676 1.5361C21.6215 1.28438 21.5316 1.02277 21.3338 0.854659C21.136 0.686546 20.8619 0.638 20.6173 0.728799C16.8478 2.12405 5.23904 6.47971 0.494116 8.23545C0.192951 8.34693 -0.00303106 8.63641 0.00685791 8.95375C0.0176459 9.272 0.231608 9.54799 0.539965 9.64059C2.6679 10.2771 5.46109 11.1626 5.46109 11.1626C5.46109 11.1626 6.76644 15.1047 7.44698 17.1095C7.53239 17.3612 7.72927 17.559 7.98908 17.6273C8.24799 17.6947 8.52488 17.6237 8.71817 17.4412C9.81134 16.4091 11.5015 14.8134 11.5015 14.8134C11.5015 14.8134 14.7127 17.1679 16.5341 18.4651ZM6.63608 10.6645L8.1455 15.6432L8.48083 12.4904C8.48083 12.4904 14.3126 7.23037 17.6371 4.23221C17.7342 4.1441 17.7477 3.99667 17.6668 3.89328C17.5868 3.7899 17.4394 3.76562 17.3288 3.83575C13.4757 6.29631 6.63608 10.6645 6.63608 10.6645Z" fill="white"/>
</g>
</g>
</g>
<defs>
<clipPath id="clip0_3605_341">
<rect width="21.59" height="17.98" fill="white" transform="translate(0 0.683838)"/>
</clipPath>
<clipPath id="clip1_3605_341">
<rect width="21.59" height="17.98" fill="white" transform="translate(0 0.683838)"/>
</clipPath>
<clipPath id="clip2_3605_341">
<rect width="21.576" height="17.98" fill="white" transform="translate(0.00698853 0.683838)"/>
</clipPath>
</defs>
</svg>
